<mxfile host="app.diagrams.net" modified="2023-05-09T09:37:15.999Z" agent="Mozilla/5.0 (Windows NT 10.0; Win64; x64; rv:102.0) Gecko/20100101 Firefox/102.0" etag="HCuOroFOtWpK_bmMCOpL" version="21.2.9" type="github">
  <diagram name="Page-1" id="Ch3lfuWIi-SiRM23WEOO">
    <mxGraphModel dx="1195" dy="785" grid="1" gridSize="10" guides="1" tooltips="1" connect="1" arrows="1" fold="1" page="1" pageScale="1" pageWidth="850" pageHeight="1100" math="0" shadow="0">
      <root>
        <mxCell id="0" />
        <mxCell id="1" parent="0" />
        <mxCell id="QcjQ5oeREpO-te9UgjIc-1" value="" style="line;strokeWidth=2;direction=south;html=1;fontFamily=Verdana;" vertex="1" parent="1">
          <mxGeometry x="195" y="120" width="10" height="440" as="geometry" />
        </mxCell>
        <mxCell id="QcjQ5oeREpO-te9UgjIc-2" value="" style="line;strokeWidth=2;direction=south;html=1;fontFamily=Verdana;" vertex="1" parent="1">
          <mxGeometry x="556" y="120" width="10" height="440" as="geometry" />
        </mxCell>
        <mxCell id="QcjQ5oeREpO-te9UgjIc-19" value="" style="endArrow=classic;html=1;rounded=0;entryX=0.275;entryY=0.414;entryDx=0;entryDy=0;entryPerimeter=0;exitX=0.2;exitY=0.676;exitDx=0;exitDy=0;exitPerimeter=0;fontFamily=Verdana;" edge="1" parent="1" target="QcjQ5oeREpO-te9UgjIc-2">
          <mxGeometry relative="1" as="geometry">
            <mxPoint x="198.24" y="202" as="sourcePoint" />
            <mxPoint x="559.1700000000001" y="233.20000000000016" as="targetPoint" />
          </mxGeometry>
        </mxCell>
        <mxCell id="QcjQ5oeREpO-te9UgjIc-20" value="&lt;div&gt;&amp;lt;SEQ=100&amp;gt;&amp;lt;CTL=SYN&amp;gt; &lt;/div&gt;" style="edgeLabel;resizable=0;html=1;align=center;verticalAlign=middle;fontFamily=Verdana;" connectable="0" vertex="1" parent="QcjQ5oeREpO-te9UgjIc-19">
          <mxGeometry relative="1" as="geometry" />
        </mxCell>
        <mxCell id="QcjQ5oeREpO-te9UgjIc-24" value="" style="line;strokeWidth=2;html=1;fontFamily=Verdana;" vertex="1" parent="1">
          <mxGeometry x="100" y="196" width="100" height="10" as="geometry" />
        </mxCell>
        <UserObject label="CLOSED" placeholders="1" name="Variable" id="QcjQ5oeREpO-te9UgjIc-25">
          <mxCell style="text;html=1;strokeColor=none;fillColor=none;align=center;verticalAlign=middle;whiteSpace=wrap;overflow=hidden;fontFamily=Verdana;" vertex="1" parent="1">
            <mxGeometry x="110" y="150" width="80" height="20" as="geometry" />
          </mxCell>
        </UserObject>
        <mxCell id="QcjQ5oeREpO-te9UgjIc-26" value="" style="line;strokeWidth=2;html=1;fontFamily=Verdana;" vertex="1" parent="1">
          <mxGeometry x="100" y="315" width="100" height="10" as="geometry" />
        </mxCell>
        <UserObject label="SYN-SENT" placeholders="1" name="Variable" id="QcjQ5oeREpO-te9UgjIc-27">
          <mxCell style="text;html=1;strokeColor=none;fillColor=none;align=center;verticalAlign=middle;whiteSpace=wrap;overflow=hidden;fontFamily=Verdana;" vertex="1" parent="1">
            <mxGeometry x="110" y="235" width="80" height="20" as="geometry" />
          </mxCell>
        </UserObject>
        <mxCell id="QcjQ5oeREpO-te9UgjIc-28" value="" style="endArrow=classic;html=1;rounded=0;entryX=0.377;entryY=0.5;entryDx=0;entryDy=0;entryPerimeter=0;exitX=0.277;exitY=0.767;exitDx=0;exitDy=0;exitPerimeter=0;fontFamily=Verdana;" edge="1" parent="1">
          <mxGeometry relative="1" as="geometry">
            <mxPoint x="559.3299999999997" y="280.80000000000007" as="sourcePoint" />
            <mxPoint x="201" y="320.8000000000002" as="targetPoint" />
          </mxGeometry>
        </mxCell>
        <mxCell id="QcjQ5oeREpO-te9UgjIc-29" value="&lt;div&gt;&amp;lt;SEQ=300&amp;gt;&amp;lt;ACK=101&amp;gt;&amp;lt;CTL=SYN,ACK&amp;gt;&lt;/div&gt;" style="edgeLabel;resizable=0;html=1;align=center;verticalAlign=middle;fontFamily=Verdana;" connectable="0" vertex="1" parent="QcjQ5oeREpO-te9UgjIc-28">
          <mxGeometry relative="1" as="geometry" />
        </mxCell>
        <mxCell id="QcjQ5oeREpO-te9UgjIc-30" value="" style="line;strokeWidth=2;html=1;fontFamily=Verdana;" vertex="1" parent="1">
          <mxGeometry x="562" y="235" width="100" height="10" as="geometry" />
        </mxCell>
        <UserObject label="LISTEN" placeholders="1" name="Variable" id="QcjQ5oeREpO-te9UgjIc-31">
          <mxCell style="text;html=1;strokeColor=none;fillColor=none;align=center;verticalAlign=middle;whiteSpace=wrap;overflow=hidden;fontFamily=Verdana;" vertex="1" parent="1">
            <mxGeometry x="572" y="191" width="80" height="20" as="geometry" />
          </mxCell>
        </UserObject>
        <mxCell id="QcjQ5oeREpO-te9UgjIc-32" value="" style="line;strokeWidth=2;html=1;fontFamily=Verdana;" vertex="1" parent="1">
          <mxGeometry x="562" y="395" width="100" height="10" as="geometry" />
        </mxCell>
        <UserObject label="&lt;div&gt;SYN-RECEIVED&lt;/div&gt;" placeholders="1" name="Variable" id="QcjQ5oeREpO-te9UgjIc-33">
          <mxCell style="text;html=1;strokeColor=none;fillColor=none;align=center;verticalAlign=middle;whiteSpace=wrap;overflow=hidden;fontFamily=Verdana;" vertex="1" parent="1">
            <mxGeometry x="543" y="310" width="138" height="20" as="geometry" />
          </mxCell>
        </UserObject>
        <UserObject label="ESTABLISHED" placeholders="1" name="Variable" id="QcjQ5oeREpO-te9UgjIc-35">
          <mxCell style="text;html=1;strokeColor=none;fillColor=none;align=center;verticalAlign=middle;whiteSpace=wrap;overflow=hidden;fontFamily=Verdana;" vertex="1" parent="1">
            <mxGeometry x="566" y="440" width="90" height="20" as="geometry" />
          </mxCell>
        </UserObject>
        <mxCell id="QcjQ5oeREpO-te9UgjIc-38" value="" style="endArrow=classic;html=1;rounded=0;entryX=0.639;entryY=0.552;entryDx=0;entryDy=0;entryPerimeter=0;exitX=0.2;exitY=0.25;exitDx=0;exitDy=0;exitPerimeter=0;fontFamily=Verdana;" edge="1" parent="1" target="QcjQ5oeREpO-te9UgjIc-2">
          <mxGeometry relative="1" as="geometry">
            <mxPoint x="200" y="360" as="sourcePoint" />
            <mxPoint x="556" y="399" as="targetPoint" />
          </mxGeometry>
        </mxCell>
        <mxCell id="QcjQ5oeREpO-te9UgjIc-39" value="&lt;div&gt;&amp;lt;SEQ=101&amp;gt;&amp;lt;ACK=301&amp;gt;&amp;lt;CTL=ACK&amp;gt;&lt;/div&gt;" style="edgeLabel;resizable=0;html=1;align=center;verticalAlign=middle;fontFamily=Verdana;" connectable="0" vertex="1" parent="QcjQ5oeREpO-te9UgjIc-38">
          <mxGeometry relative="1" as="geometry" />
        </mxCell>
        <UserObject label="ESTABLISHED" placeholders="1" name="Variable" id="QcjQ5oeREpO-te9UgjIc-42">
          <mxCell style="text;html=1;strokeColor=none;fillColor=none;align=center;verticalAlign=middle;whiteSpace=wrap;overflow=hidden;fontFamily=Verdana;" vertex="1" parent="1">
            <mxGeometry x="105" y="390" width="90" height="20" as="geometry" />
          </mxCell>
        </UserObject>
        <mxCell id="QcjQ5oeREpO-te9UgjIc-43" value="&lt;b&gt;Client&lt;/b&gt;" style="rounded=1;whiteSpace=wrap;html=1;fontFamily=Verdana;" vertex="1" parent="1">
          <mxGeometry x="155" y="90" width="90" height="30" as="geometry" />
        </mxCell>
        <mxCell id="QcjQ5oeREpO-te9UgjIc-44" value="&lt;b&gt;Server&lt;/b&gt;" style="rounded=1;whiteSpace=wrap;html=1;fontFamily=Verdana;" vertex="1" parent="1">
          <mxGeometry x="516" y="90" width="90" height="30" as="geometry" />
        </mxCell>
        <mxCell id="QcjQ5oeREpO-te9UgjIc-46" value="" style="line;strokeWidth=2;html=1;fontFamily=Verdana;" vertex="1" parent="1">
          <mxGeometry x="562" y="155" width="100" height="10" as="geometry" />
        </mxCell>
        <UserObject label="CLOSED" placeholders="1" name="Variable" id="QcjQ5oeREpO-te9UgjIc-47">
          <mxCell style="text;html=1;strokeColor=none;fillColor=none;align=center;verticalAlign=middle;whiteSpace=wrap;overflow=hidden;fontFamily=Verdana;" vertex="1" parent="1">
            <mxGeometry x="572" y="130" width="80" height="20" as="geometry" />
          </mxCell>
        </UserObject>
        <mxCell id="QcjQ5oeREpO-te9UgjIc-50" value="&lt;div align=&quot;left&quot;&gt;bind()&lt;/div&gt;" style="text;html=1;align=left;verticalAlign=middle;resizable=0;points=[];autosize=1;strokeColor=none;fillColor=none;fontColor=#3399FF;fontFamily=Verdana;" vertex="1" parent="1">
          <mxGeometry x="670" y="123" width="60" height="30" as="geometry" />
        </mxCell>
        <mxCell id="QcjQ5oeREpO-te9UgjIc-51" value="&lt;div align=&quot;left&quot;&gt;&lt;font&gt;listen()&lt;/font&gt;&lt;/div&gt;" style="text;html=1;align=left;verticalAlign=middle;resizable=0;points=[];autosize=1;strokeColor=none;fillColor=none;fontColor=#3399FF;fontFamily=Verdana;" vertex="1" parent="1">
          <mxGeometry x="670" y="144" width="70" height="30" as="geometry" />
        </mxCell>
        <mxCell id="QcjQ5oeREpO-te9UgjIc-52" value="" style="endArrow=classic;startArrow=classic;html=1;rounded=0;exitX=0.899;exitY=0.371;exitDx=0;exitDy=0;exitPerimeter=0;fontFamily=Verdana;" edge="1" parent="1">
          <mxGeometry width="50" height="50" relative="1" as="geometry">
            <mxPoint x="201.28999999999996" y="503.5999999999999" as="sourcePoint" />
            <mxPoint x="562" y="504" as="targetPoint" />
          </mxGeometry>
        </mxCell>
        <mxCell id="QcjQ5oeREpO-te9UgjIc-55" value="write()/read()" style="text;html=1;align=left;verticalAlign=middle;resizable=0;points=[];autosize=1;strokeColor=none;fillColor=none;fontColor=#3399FF;fontFamily=Verdana;" vertex="1" parent="1">
          <mxGeometry x="660" y="494" width="110" height="30" as="geometry" />
        </mxCell>
        <mxCell id="QcjQ5oeREpO-te9UgjIc-56" value="&lt;div align=&quot;left&quot;&gt;accept()&lt;/div&gt;" style="text;html=1;align=left;verticalAlign=middle;resizable=0;points=[];autosize=1;strokeColor=none;fillColor=none;fontColor=#3399FF;fontFamily=Verdana;" vertex="1" parent="1">
          <mxGeometry x="670" y="420" width="70" height="30" as="geometry" />
        </mxCell>
        <mxCell id="QcjQ5oeREpO-te9UgjIc-57" value="write()/read()" style="text;html=1;align=left;verticalAlign=middle;resizable=0;points=[];autosize=1;strokeColor=none;fillColor=none;fontColor=#3399FF;fontFamily=Verdana;" vertex="1" parent="1">
          <mxGeometry x="30" y="494" width="110" height="30" as="geometry" />
        </mxCell>
        <mxCell id="QcjQ5oeREpO-te9UgjIc-58" value="connect()" style="text;html=1;align=left;verticalAlign=middle;resizable=0;points=[];autosize=1;strokeColor=none;fillColor=none;fontColor=#3399FF;fontFamily=Verdana;" vertex="1" parent="1">
          <mxGeometry x="34" y="184" width="80" height="30" as="geometry" />
        </mxCell>
        <mxCell id="QcjQ5oeREpO-te9UgjIc-59" value="" style="line;strokeWidth=2;direction=south;html=1;fontFamily=Verdana;" vertex="1" parent="1">
          <mxGeometry x="960" y="120" width="10" height="440" as="geometry" />
        </mxCell>
        <mxCell id="QcjQ5oeREpO-te9UgjIc-60" value="" style="line;strokeWidth=2;direction=south;html=1;fontFamily=Verdana;" vertex="1" parent="1">
          <mxGeometry x="1321" y="120" width="10" height="440" as="geometry" />
        </mxCell>
        <mxCell id="QcjQ5oeREpO-te9UgjIc-61" value="" style="endArrow=classic;html=1;rounded=0;entryX=0.275;entryY=0.414;entryDx=0;entryDy=0;entryPerimeter=0;exitX=0.2;exitY=0.676;exitDx=0;exitDy=0;exitPerimeter=0;fontFamily=Verdana;" edge="1" parent="1" target="QcjQ5oeREpO-te9UgjIc-60">
          <mxGeometry relative="1" as="geometry">
            <mxPoint x="963.24" y="202" as="sourcePoint" />
            <mxPoint x="1324.17" y="233.20000000000016" as="targetPoint" />
          </mxGeometry>
        </mxCell>
        <mxCell id="QcjQ5oeREpO-te9UgjIc-62" value="&lt;div&gt;&amp;lt;SEQ=100&amp;gt;&amp;lt;CTL=SYN&amp;gt; &lt;/div&gt;" style="edgeLabel;resizable=0;html=1;align=center;verticalAlign=middle;fontFamily=Verdana;" connectable="0" vertex="1" parent="QcjQ5oeREpO-te9UgjIc-61">
          <mxGeometry relative="1" as="geometry" />
        </mxCell>
        <mxCell id="QcjQ5oeREpO-te9UgjIc-67" value="" style="endArrow=classic;html=1;rounded=0;entryX=0.377;entryY=0.5;entryDx=0;entryDy=0;entryPerimeter=0;exitX=0.277;exitY=0.767;exitDx=0;exitDy=0;exitPerimeter=0;fontFamily=Verdana;" edge="1" parent="1">
          <mxGeometry relative="1" as="geometry">
            <mxPoint x="1324.3299999999997" y="280.80000000000007" as="sourcePoint" />
            <mxPoint x="966" y="320.8000000000002" as="targetPoint" />
          </mxGeometry>
        </mxCell>
        <mxCell id="QcjQ5oeREpO-te9UgjIc-68" value="&lt;div&gt;&amp;lt;SEQ=300&amp;gt;&amp;lt;ACK=101&amp;gt;&amp;lt;CTL=SYN,ACK&amp;gt;&lt;/div&gt;" style="edgeLabel;resizable=0;html=1;align=center;verticalAlign=middle;fontFamily=Verdana;" connectable="0" vertex="1" parent="QcjQ5oeREpO-te9UgjIc-67">
          <mxGeometry relative="1" as="geometry" />
        </mxCell>
        <mxCell id="QcjQ5oeREpO-te9UgjIc-74" value="" style="endArrow=classic;html=1;rounded=0;entryX=0.639;entryY=0.552;entryDx=0;entryDy=0;entryPerimeter=0;exitX=0.2;exitY=0.25;exitDx=0;exitDy=0;exitPerimeter=0;fontFamily=Verdana;" edge="1" parent="1" target="QcjQ5oeREpO-te9UgjIc-60">
          <mxGeometry relative="1" as="geometry">
            <mxPoint x="965" y="360" as="sourcePoint" />
            <mxPoint x="1321" y="399" as="targetPoint" />
          </mxGeometry>
        </mxCell>
        <mxCell id="QcjQ5oeREpO-te9UgjIc-75" value="&lt;div&gt;&amp;lt;SEQ=101&amp;gt;&amp;lt;ACK=301&amp;gt;&amp;lt;CTL=ACK&amp;gt;&lt;/div&gt;" style="edgeLabel;resizable=0;html=1;align=center;verticalAlign=middle;fontFamily=Verdana;" connectable="0" vertex="1" parent="QcjQ5oeREpO-te9UgjIc-74">
          <mxGeometry relative="1" as="geometry" />
        </mxCell>
        <mxCell id="QcjQ5oeREpO-te9UgjIc-77" value="&lt;b&gt;Client&lt;/b&gt;" style="rounded=1;whiteSpace=wrap;html=1;fontFamily=Verdana;" vertex="1" parent="1">
          <mxGeometry x="920" y="90" width="90" height="30" as="geometry" />
        </mxCell>
        <mxCell id="QcjQ5oeREpO-te9UgjIc-78" value="&lt;b&gt;Server&lt;/b&gt;" style="rounded=1;whiteSpace=wrap;html=1;fontFamily=Verdana;" vertex="1" parent="1">
          <mxGeometry x="1281" y="90" width="90" height="30" as="geometry" />
        </mxCell>
        <mxCell id="QcjQ5oeREpO-te9UgjIc-81" value="&lt;div align=&quot;left&quot;&gt;bind()&lt;/div&gt;" style="text;html=1;align=left;verticalAlign=middle;resizable=0;points=[];autosize=1;strokeColor=none;fillColor=none;fontColor=#3399FF;fontFamily=Verdana;" vertex="1" parent="1">
          <mxGeometry x="1346" y="130" width="60" height="30" as="geometry" />
        </mxCell>
        <mxCell id="QcjQ5oeREpO-te9UgjIc-82" value="&lt;div align=&quot;left&quot;&gt;&lt;font&gt;listen(sockfd, backlog)&lt;/font&gt;&lt;/div&gt;" style="text;html=1;align=left;verticalAlign=middle;resizable=0;points=[];autosize=1;strokeColor=none;fillColor=none;fontColor=#3399FF;fontFamily=Verdana;" vertex="1" parent="1">
          <mxGeometry x="1346" y="160" width="160" height="30" as="geometry" />
        </mxCell>
        <mxCell id="QcjQ5oeREpO-te9UgjIc-87" value="connect()" style="text;html=1;align=left;verticalAlign=middle;resizable=0;points=[];autosize=1;strokeColor=none;fillColor=none;fontColor=#3399FF;fontFamily=Verdana;" vertex="1" parent="1">
          <mxGeometry x="880" y="186" width="80" height="30" as="geometry" />
        </mxCell>
        <mxCell id="QcjQ5oeREpO-te9UgjIc-90" value="" style="endArrow=classic;html=1;rounded=0;dashed=1;strokeColor=#FF0000;fontFamily=Verdana;" edge="1" parent="1">
          <mxGeometry width="50" height="50" relative="1" as="geometry">
            <mxPoint x="1115" y="160" as="sourcePoint" />
            <mxPoint x="1135" y="200" as="targetPoint" />
          </mxGeometry>
        </mxCell>
        <mxCell id="QcjQ5oeREpO-te9UgjIc-91" value="&lt;div&gt;&lt;font&gt;tcp_sync_retries&lt;/font&gt;&lt;/div&gt;" style="text;html=1;align=center;verticalAlign=middle;resizable=0;points=[];autosize=1;strokeColor=none;fillColor=none;fontColor=#FF0000;fontFamily=Verdana;" vertex="1" parent="1">
          <mxGeometry x="1035" y="135" width="130" height="30" as="geometry" />
        </mxCell>
        <mxCell id="QcjQ5oeREpO-te9UgjIc-92" value="&lt;div align=&quot;left&quot;&gt;&lt;font&gt;listen(sockfd, backlog)&lt;/font&gt;&lt;/div&gt;" style="text;html=1;align=left;verticalAlign=middle;resizable=0;points=[];autosize=1;strokeColor=none;fillColor=none;fontColor=#3399FF;fontFamily=Verdana;" vertex="1" parent="1">
          <mxGeometry x="1346" y="160" width="160" height="30" as="geometry" />
        </mxCell>
        <mxCell id="QcjQ5oeREpO-te9UgjIc-93" value="&lt;div align=&quot;left&quot;&gt;bind()&lt;/div&gt;" style="text;html=1;align=left;verticalAlign=middle;resizable=0;points=[];autosize=1;strokeColor=none;fillColor=none;fontColor=#3399FF;fontFamily=Verdana;" vertex="1" parent="1">
          <mxGeometry x="1346" y="130" width="60" height="30" as="geometry" />
        </mxCell>
        <mxCell id="QcjQ5oeREpO-te9UgjIc-94" value="&lt;div align=&quot;left&quot;&gt;accept()&lt;/div&gt;" style="text;html=1;align=left;verticalAlign=middle;resizable=0;points=[];autosize=1;strokeColor=none;fillColor=none;fontColor=#3399FF;fontFamily=Verdana;" vertex="1" parent="1">
          <mxGeometry x="1341" y="470" width="70" height="30" as="geometry" />
        </mxCell>
        <mxCell id="QcjQ5oeREpO-te9UgjIc-97" value="tcp_synack_retries" style="text;html=1;align=center;verticalAlign=middle;resizable=0;points=[];autosize=1;strokeColor=none;fillColor=none;fontColor=#FF0000;fontFamily=Verdana;" vertex="1" parent="1">
          <mxGeometry x="1146" y="330" width="140" height="30" as="geometry" />
        </mxCell>
        <mxCell id="QcjQ5oeREpO-te9UgjIc-98" value="" style="endArrow=classic;html=1;rounded=0;dashed=1;strokeColor=#FF0000;fontFamily=Verdana;" edge="1" parent="1">
          <mxGeometry width="50" height="50" relative="1" as="geometry">
            <mxPoint x="1205" y="330" as="sourcePoint" />
            <mxPoint x="1165" y="310" as="targetPoint" />
            <Array as="points" />
          </mxGeometry>
        </mxCell>
        <mxCell id="QcjQ5oeREpO-te9UgjIc-99" value="" style="endArrow=classic;html=1;rounded=0;dashed=1;strokeColor=#FF0000;fontFamily=Verdana;entryX=0.295;entryY=0.1;entryDx=0;entryDy=0;entryPerimeter=0;" edge="1" parent="1">
          <mxGeometry width="50" height="50" relative="1" as="geometry">
            <mxPoint x="1398" y="250" as="sourcePoint" />
            <mxPoint x="1327.9999999999995" y="249.80000000000018" as="targetPoint" />
          </mxGeometry>
        </mxCell>
        <mxCell id="QcjQ5oeREpO-te9UgjIc-100" value="tcp_max_syn_backlog" style="text;html=1;align=center;verticalAlign=middle;resizable=0;points=[];autosize=1;strokeColor=none;fillColor=none;fontColor=#FF0000;fontFamily=Verdana;" vertex="1" parent="1">
          <mxGeometry x="1392.5" y="233" width="160" height="30" as="geometry" />
        </mxCell>
        <mxCell id="QcjQ5oeREpO-te9UgjIc-103" value="" style="endArrow=classic;html=1;rounded=0;dashed=1;strokeColor=#FF0000;fontFamily=Verdana;entryX=0.295;entryY=0.1;entryDx=0;entryDy=0;entryPerimeter=0;" edge="1" parent="1">
          <mxGeometry width="50" height="50" relative="1" as="geometry">
            <mxPoint x="1398.5" y="270" as="sourcePoint" />
            <mxPoint x="1328.5" y="270" as="targetPoint" />
          </mxGeometry>
        </mxCell>
        <mxCell id="QcjQ5oeREpO-te9UgjIc-104" value="tcp_syncookies" style="text;html=1;align=center;verticalAlign=middle;resizable=0;points=[];autosize=1;strokeColor=none;fillColor=none;fontColor=#FF0000;fontFamily=Verdana;" vertex="1" parent="1">
          <mxGeometry x="1391.5" y="253" width="120" height="30" as="geometry" />
        </mxCell>
        <mxCell id="QcjQ5oeREpO-te9UgjIc-105" value="" style="endArrow=classic;html=1;rounded=0;dashed=1;strokeColor=#FF0000;fontFamily=Verdana;" edge="1" parent="1">
          <mxGeometry width="50" height="50" relative="1" as="geometry">
            <mxPoint x="1520" y="130" as="sourcePoint" />
            <mxPoint x="1470" y="165" as="targetPoint" />
          </mxGeometry>
        </mxCell>
        <mxCell id="QcjQ5oeREpO-te9UgjIc-106" value="net.core.somaxconn" style="text;html=1;align=center;verticalAlign=middle;resizable=0;points=[];autosize=1;strokeColor=none;fillColor=none;fontColor=#FF0000;fontFamily=Verdana;" vertex="1" parent="1">
          <mxGeometry x="1460" y="105" width="150" height="30" as="geometry" />
        </mxCell>
        <mxCell id="QcjQ5oeREpO-te9UgjIc-147" value="&lt;div align=&quot;center&quot;&gt;SYN Queue&amp;nbsp;&amp;nbsp;&amp;nbsp;&amp;nbsp;&amp;nbsp;&amp;nbsp; &lt;br&gt;&lt;/div&gt;" style="strokeWidth=2;html=1;shape=mxgraph.flowchart.direct_data;whiteSpace=wrap;align=center;" vertex="1" parent="1">
          <mxGeometry x="1470" y="290" width="100" height="60" as="geometry" />
        </mxCell>
        <mxCell id="QcjQ5oeREpO-te9UgjIc-148" value="accept Queue&amp;nbsp;&amp;nbsp;&amp;nbsp;&amp;nbsp;&amp;nbsp;&amp;nbsp; " style="strokeWidth=2;html=1;shape=mxgraph.flowchart.direct_data;whiteSpace=wrap;" vertex="1" parent="1">
          <mxGeometry x="1470" y="450" width="100" height="60" as="geometry" />
        </mxCell>
        <mxCell id="QcjQ5oeREpO-te9UgjIc-149" value="" style="endArrow=classic;html=1;rounded=0;dashed=1;strokeColor=#FF0000;fontFamily=Verdana;entryX=0.295;entryY=0.1;entryDx=0;entryDy=0;entryPerimeter=0;" edge="1" parent="1">
          <mxGeometry width="50" height="50" relative="1" as="geometry">
            <mxPoint x="1400" y="430" as="sourcePoint" />
            <mxPoint x="1331" y="430" as="targetPoint" />
          </mxGeometry>
        </mxCell>
        <mxCell id="QcjQ5oeREpO-te9UgjIc-152" value="tcp_abort_on_overflow" style="text;html=1;align=center;verticalAlign=middle;resizable=0;points=[];autosize=1;strokeColor=none;fillColor=none;fontColor=#FF0000;fontFamily=Verdana;" vertex="1" parent="1">
          <mxGeometry x="1394" y="413" width="170" height="30" as="geometry" />
        </mxCell>
      </root>
    </mxGraphModel>
  </diagram>
</mxfile>
